<?xml version="1.0"?>
<svg xmlns="http://www.w3.org/2000/svg" style="display:none">
  

  <symbol id="icon-home" viewBox="0 0 24 24">
    <path class="da-icon-bg" d="M4 11.2 12 5l8 6.2V19a1.5 1.5 0 0 1-1.5 1.5h-13A1.5 1.5 0 0 1 4 19z"></path>
    <path class="da-icon-fg" d="M3.5 11.5 12 5l8.5 6.5V19a1.5 1.5 0 0 1-1.5 1.5h-13A1.5 1.5 0 0 1 3.5 19zM10 20.5v-5h4v5"></path>
  </symbol>

  <symbol id="icon-apps" viewBox="0 0 24 24">
    <rect class="da-icon-bg" x="4" y="4" width="7" height="7" rx="1.5"></rect>
    <rect class="da-icon-bg" x="13" y="13" width="7" height="7" rx="1.5"></rect>
    <rect class="da-icon-fg" x="4" y="4" width="7" height="7" rx="1.5"></rect>
    <rect class="da-icon-fg" x="13" y="4" width="7" height="7" rx="1.5"></rect>
    <rect class="da-icon-fg" x="4" y="13" width="7" height="7" rx="1.5"></rect>
    <rect class="da-icon-fg" x="13" y="13" width="7" height="7" rx="1.5"></rect>
  </symbol>

  <symbol id="icon-forms" viewBox="0 0 24 24">
    <rect class="da-icon-bg" x="5" y="4" width="14" height="17" rx="2"></rect>
    <rect class="da-icon-fg" x="5" y="4" width="14" height="17" rx="2"></rect>
    <path class="da-icon-fg" d="M9 3.5h6a1 1 0 0 1 1 1V6H8V4.5a1 1 0 0 1 1-1zM8.5 11h7M8.5 14.5h7M8.5 18h4"></path>
  </symbol>

  <symbol id="icon-tasks" viewBox="0 0 24 24">
    <circle class="da-icon-bg" cx="12" cy="12" r="9"></circle>
    <circle class="da-icon-fg" cx="12" cy="12" r="9"></circle>
    <path class="da-icon-fg" d="m8 12.5 2.8 2.8L16.5 9.5"></path>
  </symbol>

  <symbol id="icon-projects" viewBox="0 0 24 24">
    <path class="da-icon-bg" d="m12 3 8 5v8l-8 5-8-5V8z"></path>
    <path class="da-icon-fg" d="m12 3 8 5v8l-8 5-8-5V8zM4 8l8 5 8-5M12 13v9"></path>
  </symbol>

  <symbol id="icon-reports" viewBox="0 0 24 24">
    <rect class="da-icon-bg" x="4" y="4" width="16" height="16" rx="2"></rect>
    <rect class="da-icon-fg" x="4" y="4" width="16" height="16" rx="2"></rect>
    <path class="da-icon-fg" d="M8 16v-3M12 16V9M16 16v-5"></path>
  </symbol>

  <symbol id="icon-settings" viewBox="0 0 24 24">
    <circle class="da-icon-bg" cx="12" cy="12" r="3.2"></circle>
    <path class="da-icon-fg" d="M12 8.8a3.2 3.2 0 1 0 0 6.4 3.2 3.2 0 0 0 0-6.4z"></path>
    <path class="da-icon-fg" d="M19.4 12c0-.4 0-.8-.1-1.2l2-1.5-2-3.4-2.3.9c-.6-.5-1.3-.9-2-1.2L14.6 3h-4l-.3 2.4c-.7.3-1.4.7-2 1.2l-2.4-.9-2 3.4 2 1.5c-.1.4-.1.8-.1 1.2s0 .8.1 1.2l-2 1.5 2 3.4 2.4-.9c.6.5 1.3.9 2 1.2l.3 2.4h4l.4-2.4c.7-.3 1.4-.7 2-1.2l2.3.9 2-3.4-2-1.5c.1-.4.1-.8.1-1.2z"></path>
  </symbol>

  <symbol id="icon-cases" viewBox="0 0 24 24">
    <path class="da-icon-bg" d="M3.5 7.5a2 2 0 0 1 2-2H10l2 2.2h6.5a2 2 0 0 1 2 2V18a2 2 0 0 1-2 2h-13a2 2 0 0 1-2-2z"></path>
    <path class="da-icon-fg" d="M3.5 7.5a2 2 0 0 1 2-2H10l2 2.2h6.5a2 2 0 0 1 2 2V18a2 2 0 0 1-2 2h-13a2 2 0 0 1-2-2zM3.5 11h17"></path>
  </symbol>

  <symbol id="icon-donors" viewBox="0 0 24 24">
    <path class="da-icon-bg" d="M12 20.5s-7-4.3-7-9.5a4 4 0 0 1 7-2.6A4 4 0 0 1 19 11c0 5.2-7 9.5-7 9.5z"></path>
    <path class="da-icon-fg" d="M12 20.5s-7-4.3-7-9.5a4 4 0 0 1 7-2.6A4 4 0 0 1 19 11c0 5.2-7 9.5-7 9.5z"></path>
  </symbol>

  <symbol id="icon-monitoring" viewBox="0 0 24 24">
    <rect class="da-icon-bg" x="3.5" y="5" width="17" height="12" rx="2"></rect>
    <rect class="da-icon-fg" x="3.5" y="5" width="17" height="12" rx="2"></rect>
    <path class="da-icon-fg" d="m6.5 13.5 3-3 2.5 2.5L17.5 8M9 21h6M12 17v4"></path>
  </symbol>

  <symbol id="icon-programs" viewBox="0 0 24 24">
    <circle class="da-icon-bg" cx="12" cy="12" r="9"></circle>
    <circle class="da-icon-fg" cx="12" cy="12" r="9"></circle>
    <circle class="da-icon-fg" cx="12" cy="12" r="5.4"></circle>
    <circle class="da-icon-fg-fill" cx="12" cy="12" r="1.8"></circle>
  </symbol>

  <symbol id="icon-beneficiaries" viewBox="0 0 24 24">
    <circle class="da-icon-bg" cx="9" cy="9" r="3.5"></circle>
    <path class="da-icon-bg" d="M3 20c0-3 2.7-5.5 6-5.5s6 2.5 6 5.5z"></path>
    <circle class="da-icon-fg" cx="9" cy="9" r="3.5"></circle>
    <path class="da-icon-fg" d="M3 20c0-3 2.7-5.5 6-5.5s6 2.5 6 5.5"></path>
    <path class="da-icon-fg" d="M16 5.5a3 3 0 0 1 0 6M21 19c0-2.3-1.7-4-4-4.5"></path>
  </symbol>

  <symbol id="icon-education" viewBox="0 0 24 24">
    <path class="da-icon-bg" d="M2.5 9.5 12 5.5l9.5 4-9.5 4z"></path>
    <path class="da-icon-fg" d="M2.5 9.5 12 5.5l9.5 4-9.5 4zM6.5 11.5V16c0 1.5 2.5 3 5.5 3s5.5-1.5 5.5-3v-4.5M19.5 10.5V15"></path>
  </symbol>

  <symbol id="icon-search" viewBox="0 0 24 24">
    <circle class="da-icon-bg" cx="11" cy="11" r="6.5"></circle>
    <circle class="da-icon-fg" cx="11" cy="11" r="6.5"></circle>
    <path class="da-icon-fg" d="m20 20-3.6-3.6"></path>
  </symbol>

  <symbol id="icon-bell" viewBox="0 0 24 24">
    <path class="da-icon-bg" d="M5.5 17h13l-1.5-2V11a5 5 0 0 0-10 0v4z"></path>
    <path class="da-icon-fg" d="M5.5 17h13l-1.5-2V11a5 5 0 0 0-10 0v4zM10 20a2 2 0 0 0 4 0"></path>
  </symbol>

  <symbol id="icon-lock" viewBox="0 0 24 24">
    <rect class="da-icon-bg" x="5" y="11" width="14" height="9" rx="2"></rect>
    <rect class="da-icon-fg" x="5" y="11" width="14" height="9" rx="2"></rect>
    <path class="da-icon-fg" d="M8 11V8a4 4 0 0 1 8 0v3"></path>
  </symbol>

  <symbol id="icon-globe" viewBox="0 0 24 24">
    <circle class="da-icon-bg" cx="12" cy="12" r="9"></circle>
    <circle class="da-icon-fg" cx="12" cy="12" r="9"></circle>
    <path class="da-icon-fg" d="M3 12h18M12 3a14 14 0 0 1 0 18M12 3a14 14 0 0 0 0 18"></path>
  </symbol>

  <symbol id="icon-spark" viewBox="0 0 24 24">
    <path class="da-icon-bg" d="M12 3 13.6 9 19.5 10.5 13.6 12 12 18 10.4 12 4.5 10.5 10.4 9z"></path>
    <path class="da-icon-fg-fill" d="M12 3 13.6 9 19.5 10.5 13.6 12 12 18 10.4 12 4.5 10.5 10.4 9z"></path>
  </symbol>

  <symbol id="icon-arrow-left" viewBox="0 0 24 24">
    <path class="da-icon-fg" d="M14 6l-6 6 6 6"></path>
  </symbol>

  <symbol id="icon-arrow-right" viewBox="0 0 24 24">
    <path class="da-icon-fg" d="m10 6 6 6-6 6"></path>
  </symbol>

  <symbol id="icon-plus" viewBox="0 0 24 24">
    <circle class="da-icon-bg" cx="12" cy="12" r="9"></circle>
    <path class="da-icon-fg" d="M12 7v10M7 12h10"></path>
  </symbol>

  <symbol id="icon-filter" viewBox="0 0 24 24">
    <path class="da-icon-bg" d="M4 5h16l-6 8v6l-4-1.5V13z"></path>
    <path class="da-icon-fg" d="M4 5h16l-6 8v6l-4-1.5V13z"></path>
  </symbol>

  <symbol id="icon-calendar" viewBox="0 0 24 24">
    <rect class="da-icon-bg" x="4" y="6" width="16" height="14" rx="2"></rect>
    <rect class="da-icon-fg" x="4" y="6" width="16" height="14" rx="2"></rect>
    <path class="da-icon-fg" d="M4 10h16M9 4v4M15 4v4"></path>
  </symbol>

  <symbol id="icon-doc" viewBox="0 0 24 24">
    <path class="da-icon-bg" d="M6 3.5h8l4 4V20a1.5 1.5 0 0 1-1.5 1.5h-10.5A1.5 1.5 0 0 1 4.5 20V5A1.5 1.5 0 0 1 6 3.5z"></path>
    <path class="da-icon-fg" d="M6 3.5h8l4 4V20a1.5 1.5 0 0 1-1.5 1.5h-10.5A1.5 1.5 0 0 1 4.5 20V5A1.5 1.5 0 0 1 6 3.5zM14 3.5V8h4M8 13h8M8 16.5h6"></path>
  </symbol>

  <symbol id="icon-alert" viewBox="0 0 24 24">
    <path class="da-icon-bg" d="M12 4 21 19H3z"></path>
    <path class="da-icon-fg" d="M12 4 21 19H3z"></path>
    <path class="da-icon-fg" d="M12 10v4M12 17.5v.01"></path>
  </symbol>

  <symbol id="icon-logout" viewBox="0 0 24 24">
    <path class="da-icon-bg" d="M4 5a1.5 1.5 0 0 1 1.5-1.5h6V20.5h-6A1.5 1.5 0 0 1 4 19z"></path>
    <path class="da-icon-fg" d="M11.5 3.5h-6A1.5 1.5 0 0 0 4 5v14a1.5 1.5 0 0 0 1.5 1.5h6M15 8l4 4-4 4M19 12H9"></path>
  </symbol>
</svg>